HIERARCHY
ROOT Hips
{
	OFFSET -14.64140 90.27770 -84.91600
	CHANNELS 6 Xposition Yposition Zposition Zrotation Xrotation Yrotation
	JOINT Spine
	{
		OFFSET 0.00000 13.20850 -1.60436
		CHANNELS 3 Zrotation Xrotation Yrotation
		JOINT Spine1
		{
			OFFSET 0.00000 8.61716 0.00000
			CHANNELS 3 Zrotation Xrotation Yrotation
			JOINT Spine2
			{
				OFFSET 0.00000 8.61717 0.00000
				CHANNELS 3 Zrotation Xrotation Yrotation
				JOINT Spine3
				{
					OFFSET 0.00000 8.61717 0.00000
					CHANNELS 3 Zrotation Xrotation Yrotation
					JOINT Neck
					{
						OFFSET 0.00000 11.07920 1.10792
						CHANNELS 3 Zrotation Xrotation Yrotation
						JOINT Neck1
						{
							OFFSET 0.00000 7.08032 0.00000
							CHANNELS 3 Zrotation Xrotation Yrotation
							JOINT Head
							{
								OFFSET 0.00000 7.08031 0.00000
								CHANNELS 3 Zrotation Xrotation Yrotation
								End site
								{
									OFFSET 0.00000 0.00000 0.00000
								}
							}
						}
					}
					JOINT RightShoulder
					{
						OFFSET -0.01000 7.91373 5.19711
						CHANNELS 3 Zrotation Xrotation Yrotation
						JOINT RightArm
						{
							OFFSET -18.41580 0.00000 0.00000
							CHANNELS 3 Zrotation Xrotation Yrotation
							JOINT RightForeArm
							{
								OFFSET -29.11090 0.00000 0.00000
								CHANNELS 3 Zrotation Xrotation Yrotation
								JOINT RightHand
								{
									OFFSET -24.65040 0.00000 0.00000
									CHANNELS 3 Zrotation Xrotation Yrotation
									JOINT RightHandThumb1
									{
										OFFSET -5.35114 -0.85590 3.97906
										CHANNELS 3 Zrotation Xrotation Yrotation
										JOINT RightHandThumb2
										{
											OFFSET -4.52789 0.00000 0.00000
											CHANNELS 3 Zrotation Xrotation Yrotation
											JOINT RightHandThumb3
											{
												OFFSET -2.46976 0.00000 0.00000
												CHANNELS 3 Zrotation Xrotation Yrotation
												End site
												{
													OFFSET 0.00000 0.00000 0.00000
												}
											}
										}
									}
									JOINT RightHandIndex1
									{
										OFFSET -14.26970 0.00000 2.88139
										CHANNELS 3 Zrotation Xrotation Yrotation
										JOINT RightHandIndex2
										{
											OFFSET -5.48836 0.00000 0.00000
											CHANNELS 3 Zrotation Xrotation Yrotation
											JOINT RightHandIndex3
											{
												OFFSET -3.01859 0.00000 0.00000
												CHANNELS 3 Zrotation Xrotation Yrotation
												End site
												{
													OFFSET 0.00000 0.00000 0.00000
												}
											}
										}
									}
									JOINT RightHandMiddle1
									{
										OFFSET -14.26970 0.00000 -0.09147
										CHANNELS 3 Zrotation Xrotation Yrotation
										JOINT RightHandMiddle2
										{
											OFFSET -6.17441 0.00000 0.00000
											CHANNELS 3 Zrotation Xrotation Yrotation
											JOINT RightHandMiddle3
											{
												OFFSET -3.56743 0.00000 0.00000
												CHANNELS 3 Zrotation Xrotation Yrotation
												End site
												{
													OFFSET 0.00000 0.00000 0.00000
												}
											}
										}
									}
									JOINT RightHandRing1
									{
										OFFSET -12.69180 0.00000 -3.06433
										CHANNELS 3 Zrotation Xrotation Yrotation
										JOINT RightHandRing2
										{
											OFFSET -5.62556 0.00000 0.00000
											CHANNELS 3 Zrotation Xrotation Yrotation
											JOINT RightHandRing3
											{
												OFFSET -3.56744 0.00000 0.00000
												CHANNELS 3 Zrotation Xrotation Yrotation
												End site
												{
													OFFSET 0.00000 0.00000 0.00000
												}
											}
										}
									}
									JOINT RightHandPinky1
									{
										OFFSET -11.11390 0.00000 -6.03719
										CHANNELS 3 Zrotation Xrotation Yrotation
										JOINT RightHandPinky2
										{
											OFFSET -4.52789 0.00000 0.00000
											CHANNELS 3 Zrotation Xrotation Yrotation
											JOINT RightHandPinky3
											{
												OFFSET -2.46976 0.00000 0.00000
												CHANNELS 3 Zrotation Xrotation Yrotation
												End site
												{
													OFFSET 0.00000 0.00000 0.00000
												}
											}
										}
									}
								}
							}
						}
					}
					JOINT LeftShoulder
					{
						OFFSET 0.01000 7.91373 5.19711
						CHANNELS 3 Zrotation Xrotation Yrotation
						JOINT LeftArm
						{
							OFFSET 18.41580 0.00000 0.00000
							CHANNELS 3 Zrotation Xrotation Yrotation
							JOINT LeftForeArm
							{
								OFFSET 29.11090 0.00000 0.00000
								CHANNELS 3 Zrotation Xrotation Yrotation
								JOINT LeftHand
								{
									OFFSET 24.65040 0.00000 0.00000
									CHANNELS 3 Zrotation Xrotation Yrotation
									JOINT LeftHandThumb1
									{
										OFFSET 5.35114 -0.85590 3.97906
										CHANNELS 3 Zrotation Xrotation Yrotation
										JOINT LeftHandThumb2
										{
											OFFSET 4.52789 0.00000 0.00000
											CHANNELS 3 Zrotation Xrotation Yrotation
											JOINT LeftHandThumb3
											{
												OFFSET 2.46977 0.00000 0.00000
												CHANNELS 3 Zrotation Xrotation Yrotation
												End site
												{
													OFFSET 0.00000 0.00000 0.00000
												}
											}
										}
									}
									JOINT LeftHandIndex1
									{
										OFFSET 14.26970 0.00000 2.88139
										CHANNELS 3 Zrotation Xrotation Yrotation
										JOINT LeftHandIndex2
										{
											OFFSET 5.48836 0.00000 0.00000
											CHANNELS 3 Zrotation Xrotation Yrotation
											JOINT LeftHandIndex3
											{
												OFFSET 3.01859 0.00000 0.00000
												CHANNELS 3 Zrotation Xrotation Yrotation
												End site
												{
													OFFSET 0.00000 0.00000 0.00000
												}
											}
										}
									}
									JOINT LeftHandMiddle1
									{
										OFFSET 14.26970 0.00000 -0.09147
										CHANNELS 3 Zrotation Xrotation Yrotation
										JOINT LeftHandMiddle2
										{
											OFFSET 6.17440 0.00000 0.00000
											CHANNELS 3 Zrotation Xrotation Yrotation
											JOINT LeftHandMiddle3
											{
												OFFSET 3.56744 0.00000 0.00000
												CHANNELS 3 Zrotation Xrotation Yrotation
												End site
												{
													OFFSET 0.00000 0.00000 0.00000
												}
											}
										}
									}
									JOINT LeftHandRing1
									{
										OFFSET 12.69180 0.00000 -3.06433
										CHANNELS 3 Zrotation Xrotation Yrotation
										JOINT LeftHandRing2
										{
											OFFSET 5.62556 0.00000 0.00000
											CHANNELS 3 Zrotation Xrotation Yrotation
											JOINT LeftHandRing3
											{
												OFFSET 3.56744 0.00000 0.00000
												CHANNELS 3 Zrotation Xrotation Yrotation
												End site
												{
													OFFSET 0.00000 0.00000 0.00000
												}
											}
										}
									}
									JOINT LeftHandPinky1
									{
										OFFSET 11.11390 0.00000 -6.03719
										CHANNELS 3 Zrotation Xrotation Yrotation
										JOINT LeftHandPinky2
										{
											OFFSET 4.52789 0.00000 0.00000
											CHANNELS 3 Zrotation Xrotation Yrotation
											JOINT LeftHandPinky3
											{
												OFFSET 2.46976 0.00000 0.00000
												CHANNELS 3 Zrotation Xrotation Yrotation
												End site
												{
													OFFSET 0.00000 0.00000 0.00000
												}
											}
										}
									}
								}
							}
						}
					}
					JOINT pCube4
					{
						OFFSET 0.00000 10.91090 1.10792
						CHANNELS 3 Zrotation Xrotation Yrotation
						End site
						{
							OFFSET 0.00000 0.00000 0.00000
						}
					}
				}
			}
		}
	}
	JOINT RightUpLeg
	{
		OFFSET -9.98441 0.00000 0.00000
		CHANNELS 3 Zrotation Xrotation Yrotation
		JOINT RightLeg
		{
			OFFSET 0.00000 -42.11790 0.00000
			CHANNELS 3 Zrotation Xrotation Yrotation
			JOINT RightFoot
			{
				OFFSET 0.00000 -45.00020 -0.00001
				CHANNELS 3 Zrotation Xrotation Yrotation
				JOINT RightForeFoot
				{
					OFFSET 0.00000 -3.74820 0.00000
					CHANNELS 3 Zrotation Xrotation Yrotation
					JOINT RightToeBase
					{
						OFFSET 0.00000 0.06325 14.43120
						CHANNELS 3 Zrotation Xrotation Yrotation
						End site
						{
							OFFSET 0.00000 0.00000 0.00000
						}
					}
				}
			}
		}
	}
	JOINT LeftUpLeg
	{
		OFFSET 9.98441 0.00000 0.00000
		CHANNELS 3 Zrotation Xrotation Yrotation
		JOINT LeftLeg
		{
			OFFSET 0.00000 -42.11800 0.00000
			CHANNELS 3 Zrotation Xrotation Yrotation
			JOINT LeftFoot
			{
				OFFSET 0.00000 -45.00070 0.00000
				CHANNELS 3 Zrotation Xrotation Yrotation
				JOINT LeftForeFoot
				{
					OFFSET 0.00000 -3.74824 0.00000
					CHANNELS 3 Zrotation Xrotation Yrotation
					JOINT LeftToeBase
					{
						OFFSET 0.00000 0.06325 14.43110
						CHANNELS 3 Zrotation Xrotation Yrotation
						End site
						{
							OFFSET 0.00000 0.00000 0.00000
						}
					}
				}
			}
		}
	}
}
MOTION
Frames: 4
Frame Time: 0.050000
-0.011853804200081438 0.00511266104503903 -0.004080266255195168 0.011013692034917193 0.04923968139167339 0.0323739123498629 -4.144776141665605 2.645305158603927 -0.6915341965557505 -0.8877137702353118 3.6495700573805907 0.34087489452430775 -1.217042050188498 -1.4034396206725295 -0.8619954192098069 -0.20316584706891475 0.18986932371392773 -0.8741746878268832 -0.08194002564324196 10.695092413528242 -0.7249041162399558 -0.0424167186730837 -1.62136018610423 -4.255113912576411 0.31648903111860116 -17.401742894310917 -0.32682099902309936 -2.240908828279768 1.2825900636975545 -13.143257348032373 72.5855535737616 10.454785661287014 11.020238514211835 34.542833372851 6.047563515960908 95.37089086807843 18.768838224647805 -0.29916201065166853 -3.671746477468281 4.500463274472449 -0.1403838388819874 -1.6028154147528362 -0.009219599906567072 0.02193153187820227 -56.20141351813712 -0.023010838878327437 -0.020362965342427614 -56.231554681717874 -38.779044512334565 0.015844628214206347 0.018919576276214288 0.007035327961540793 -0.014163705747812593 -0.0027090912765944403 -0.0076926406400265115 0.042820202007484924 -0.0031238990427497016 -36.7051478802406 -0.022550725375486556 -0.04536086711583501 0.044583435494797166 0.00808965514477891 0.008038683207541211 0.031901516039494406 -0.022549478962291494 -0.03908567856908419 -19.768554848264777 0.017000038834485986 0.02448614635830492 -0.04590919929946919 0.000602676563005517 -0.007821220680169346 0.008374558971432546 -0.04533257243935043 -0.04351544993763236 24.01054890114372 -0.01582889052991332 0.048798201567549715 28.915084461148332 -0.03696307545765967 -0.0006511779315955031 28.854481933483562 -0.0106141785752445 0.031214059127020174 3.268154868780952 1.0396276974217877 11.680268027060208 -69.07724153526998 24.68438762460558 -9.37384637017135 -21.27835357316758 4.69291198854668 -75.6794245790393 -14.250529529564835 0.485277140670928 1.3506683500760162 -0.49618199536768415 0.06498631970422454 -8.13904816845718 0.044288824463731676 -0.03670801054488034 44.51790132016403 -0.03047623773019595 -0.02189822428846346 44.55417705332978 12.427216319042158 0.0030122951889113483 -0.013240154560889101 0.02401901639212275 0.01323732820214095 0.029181235312142912 -0.0038121616491873568 -0.01663477248491031 0.01491146390569506 11.09280031457056 -0.0006435248134586011 -0.046751776194268804 -0.0020560777384135195 -0.00839819478214258 -0.04773436586251789 0.025114308433516516 -0.015531714654005777 0.0218409336288888 4.803164424084745 0.007464605232839562 0.020238097836258746 0.04782241747041233 -0.007896386903697027 0.020091593073913096 -0.044122525001352414 0.025442369400489117 -0.026595241867647293 -5.615784492057987 -0.04239012339463204 0.043135935148184715 -6.76665067239154 0.038748087097588896 -0.03975865188097423 -6.685429482327971 0.00859169948083652 0.012746205627307305 0.03524514002541423 -0.0409013447196541 -0.03621250115424463 8.042095692326097 3.52830583096298 -19.237098467650902 0.03704921743022749 10.363610192660762 0.029680159900268992 -5.578753230635087 -15.626078448276209 3.2304654754069304 0.003791947559995708 0.03517866956106423 0.04433176836730878 -0.03329762897920169 4.70385753003041 0.035825235145896826 12.485074636141954 -8.232330661450762 6.864066689941439 -0.00958591844932878 46.35210620748782 0.02795460516504574 -4.32752281179419 -14.77707165950061 -3.812854730214982 -0.014535709518657427 -0.04178587398834059 -0.00806275501768909 -0.0022545665656092447 -10.73604877524316 0.03586250001752341 
0.04232296698216572 0.03396458877383879 0.04357693154893803 0.010640544341030435 0.0011398995800120306 -0.005048051799989361 -4.170812275418837 2.662434084732787 -0.6548195472715217 -0.9071283149935452 3.5600205034618324 0.42177703002873146 -1.2276823149727887 -1.401149046602605 -0.9603755274717741 -0.18016206591051515 0.24040260149507126 -0.8198859948722572 0.042045999950019924 10.580991949859992 -0.870046695070802 -0.11108076730567941 -1.5684931737888055 -4.50749031692396 0.3316493763633569 -17.24278589163897 -0.39582786245789736 -2.1103061700716736 1.2309567525020642 -12.942993499793532 72.2750541553353 9.95028770110575 10.940208184165943 36.13379645178709 6.052490807429934 95.66862920009754 18.954064928424593 -0.29424391674747147 -3.946950865330136 4.550325531135106 -0.0857780032270846 -1.6077181625625572 0.02044749816229681 -0.03876502335045464 -56.26571009770065 -0.020768902281272924 -0.04334550989339431 -56.252601806667954 -38.72482071458944 0.018975758115078522 0.0050810695085270995 0.006004583073062482 0.03885581665957041 0.03355933438105865 0.01392027541621478 0.01375408003686902 -0.027385706502809595 -36.67517286889214 0.04744313301138023 0.020042633820103465 -0.034876862710710194 0.015109167424716508 -0.033511843597630785 0.03274538617848643 0.045770249014047776 -0.01797421911763332 -19.781267258919662 0.027239876615381943 -0.009305761396566456 0.027891612307813687 0.0008024672382559104 -0.028716857077493853 0.005300671667370336 0.005274805576250538 0.0375747707817063 24.063303356713806 0.01682847092145342 -0.04547098159825471 28.882429875363684 0.002810822509685116 -0.037824418220697965 28.892471265692382 -0.02369622860299331 0.010576411280021023 2.932793301506809 0.9803569271903286 11.444451904893283 -69.16375034550302 24.91488188762403 -8.918953573770668 -20.85565169757164 4.277815217375582 -74.22653914215293 -14.00210564928394 0.29130807155889027 1.5503599530712584 -0.44952021614919535 0.08326878233739696 -8.143239494572992 -0.03790006313966612 -0.013641541744128733 44.59807095078443 0.028206412936306866 -0.03856381265414433 44.59758303291057 12.461157993693275 -0.01078817560296169 0.040128379995603904 0.04432429567805731 -0.033683846327354966 0.04695182619801333 0.025884352313143982 -0.03869025645958946 -0.022746833129792747 11.06691626550622 0.0172432078354736 -0.0320124362585854 0.03231254500073118 0.01007671780991087 0.033024680951788586 0.01091894548049286 -0.00975023286871191 0.0016233953000931965 4.777407701692954 -0.00615927929613975 -0.03395924816102766 0.0434800354203914 0.03743360647905119 0.04121303003605767 0.030064716427483804 0.030936056703816366 0.006012869957311812 -5.640463172586676 -0.01908124272986894 0.013667992487244828 -6.767300787509481 0.017524015961046444 0.017372800294015674 -6.677742478615803 -0.023881031421193195 -0.004398141838102956 -0.03593185590297906 0.009319535910098244 -0.0083188361144454 8.089422556880209 3.495177051512655 -19.250589520278957 -0.0030754360080733904 10.358631878111213 -0.03086860503894198 -5.5907536622234995 -15.662792467185513 3.170852129611358 0.038532947638913725 0.034138810634942965 0.04005900007945839 -0.047451988804466404 4.663647292205279 0.04170009739072835 12.499822299906915 -8.24681241721938 6.900244335700601 0.02079253778566208 46.36622433593484 -0.03746731190071138 -4.281670803709121 -14.762689348018197 -3.822341085225357 0.038761295380651824 0.012239594276480631 0.019910253951713718 -0.00931959418924281 -10.778681051821302 0.022824006793775498 
-0.01922032793329778 0.006444820937367027 0.020768556559508836 -0.014057146199661997 0.042678246663963804 -0.027249251522620456 -4.180810721551342 2.545393032165507 -0.6839561052339667 -0.9045887681496749 3.5521256454487244 0.4132866213965747 -1.2682304702996363 -1.4637850009352296 -1.0323103145613355 -0.18742164284286636 0.28620015508211305 -0.842021026500914 0.1137334751507117 10.72796577033081 -0.912875028621611 -0.013533309740109065 -1.4114868428430736 -4.558541461010551 0.2843911149170796 -17.007873744775388 -0.3674057873313092 -2.0885558133113897 1.2356884071177663 -12.892419584484614 72.23455421466625 9.553976102560181 10.92145901586493 37.67956783073166 6.059632011643449 95.96424161919462 19.01225284779764 -0.27078055506641946 -4.106369364195769 4.528769349967158 -0.12814151659142028 -1.5645785000114807 0.015695820592887978 -0.044913948312401086 -56.22301435458792 0.02280633738910778 -0.0073859484359370085 -56.190954293263204 -38.76080240293155 -0.04001527213905465 -0.027171022165580296 -0.049893203668064746 0.030419397078817554 0.0392980714463513 -0.008926136402888467 0.0075356510142972335 0.009140931017816654 -36.69646013054821 -0.04904873956796291 -0.010083785284713914 0.01753955981652176 -0.02553743616290803 -0.011359559283872275 -0.0345766452818079 -0.0014909231133928126 0.00475065232366302 -19.77645960926698 0.010304344000599807 0.017463162512257643 -0.033613376917696614 0.0019279752184460195 -0.004350400034795937 0.018603684749068566 0.04010031217749522 0.04136756623048372 24.1029636686165 -0.028870866971352275 0.005392058067461389 28.871634614205153 -0.007574508129709602 0.030174830545795547 28.87793107049629 -0.01710025814444988 0.0015285265282697488 2.903383105898363 0.9656766944355789 11.367393864267093 -69.18883418773844 25.17951459078056 -8.640602363619106 -20.6741485139333 4.174828308313898 -73.43436797038652 -13.733278783774885 0.23092265153091748 1.6100092466296927 -0.4846525096002498 0.1091366156609348 -8.148866773492731 -0.019706842012266655 -0.018059733264720053 44.546735599764546 0.005628822318155911 0.03110873123041984 44.5371713462306 12.49659371794766 -0.025339867390489122 0.0005614628864938212 0.016523149472974733 -0.027079073879241803 0.04788788161274594 -0.012217045865025374 0.02255967244703306 0.004372403080600136 11.106835204677358 -0.03283846752773682 0.012854908513950276 -0.041186413109471375 -0.025122522271367898 0.02629682062142171 0.016673072423956124 -0.010014087370582079 -0.048090473772906046 4.808280755933541 -0.031868596931937186 -0.011169152498019787 0.009614138207155655 0.035265799251237705 0.010208920253803853 -0.01750608182179125 -0.03153299473698649 0.022806198595673982 -5.606004624593184 0.00864441775774253 -0.013419077948486135 -6.7313718850625115 -0.010645886398318401 -0.037321067640446536 -6.765193926462649 -0.02061830187160658 -0.027627988512747764 -0.04284588128577092 0.005327449904420726 0.024926527277373257 8.048310982750365 3.4503115040030576 -19.20334830380481 -0.031108327020745064 10.428841145918943 -0.001856195901437284 -5.62173915156655 -15.657053274845996 3.203292639571705 0.020616279419198937 -0.02359962934313493 -0.016159542375866115 0.03932669877332017 4.720717707301099 0.03225738646787723 12.440887338618698 -8.242929306266507 6.891922713809797 -0.03115785220809649 46.42085936020125 -0.035658451453792414 -4.344346458008358 -14.751223562324459 -3.8351957411762387 -0.027542699119401336 -0.047773990044312986 -0.009893290869786362 -0.04326235761662844 -10.696193726442354 -0.031609231586942975 
-0.024528644871989917 0.015414436205283391 -0.005415536501437002 0.043880530823671444 0.03595157135613621 0.0410769453926655 -4.189721222441558 2.3920893022783467 -0.6424614144934492 -0.8968235024788268 3.554047955941198 0.33867827833806674 -1.2289929675700053 -1.5023645597951818 -1.0224431944622279 -0.13499082198047552 0.2365646237040796 -0.8769880020606798 0.09454313541606685 10.833810689918879 -0.8322005112730364 -0.025145145048712486 -1.2582566313520802 -4.488085540172152 0.3552122998582114 -16.76350516753615 -0.33188579456166056 -2.160817292600715 1.3158819251029512 -12.90538689129327 72.16077896644747 9.329665462398228 10.936734863252603 39.10195482428485 6.104175342682626 96.04312552431874 18.859776301391115 -0.2669823622304372 -4.076602649896593 4.524151644047784 -0.13548891784011136 -1.5642615715469397 0.003339717535228467 -0.004262963566558086 -56.26919212927172 0.014383317522591805 0.026486190302107412 -56.202308200595986 -38.724466939460946 -0.030502910481718794 -0.021865483645740792 -0.0029690414738970682 -0.03507410615396181 0.013993178236480776 -0.029446890143879727 -0.034763348608200885 0.038676661454977446 -36.71226062139417 -0.01724978589872412 -0.021482279126667662 -0.03127084136029235 -0.035634872867403695 0.037931968526838396 -0.018196247070173994 -0.042863035843574794 -0.029487754653116482 -19.75944639975639 -0.04683324523310997 -0.034433490659848576 -0.004740204121041832 -0.015346310213747487 0.010866597195520262 0.01135472211092253 0.029545093493273458 -0.010465106466164874 24.092056673562766 0.031127983449410732 -0.026692845512203363 28.84182444458897 -0.026246340749340437 -0.008160122389731971 28.883132681352066 -0.037541559133586075 0.01812406799926395 2.9950437578207056 1.0363032367800353 11.381639922687198 -69.14302515271628 25.366674733879485 -8.457560466619173 -20.714744475443272 4.500646878136974 -73.24342678042439 -13.395257713449197 0.20093540622277006 1.780211047915603 -0.47674167956676733 0.029870875395953893 -8.15049832388175 0.037738671555936895 -0.04977649927191489 44.548889757469574 0.011134477309727994 0.024310638167356496 44.58794875674497 12.472512074422898 -0.022354100636139008 0.039370214197608645 0.032850928922377384 0.0073934026814701645 0.024661354943337335 -0.01207457727860799 -0.036798415785738905 -0.027608352369365475 11.090845512766608 -0.017419706210257888 -0.009563528113189411 -0.0291872352210107 -0.005831129336550153 -0.02240751941178655 0.01358799482834284 -0.032428216845778075 -0.032515176467818374 4.75467489396073 -0.004428694233688648 -0.047263053305348815 0.00801488119689238 0.02064019810857687 -0.025117349404703934 -0.006180678423963306 0.008103819815979515 0.002587274580910185 -5.584647133667129 0.010951558627674546 -0.042136515489298317 -6.751754541031987 0.013684819788425716 -0.006979609589756998 -6.74979083930243 0.01792146088165475 -0.0489203672595075 0.003919979266091634 -0.04340859513139563 0.005339084499157599 8.065659372868062 3.5290070403089326 -19.218018015815588 0.026791952977147412 10.420925612305545 0.04040779775789943 -5.585019668404384 -15.66652770550958 3.1969725868726524 -0.047905864768831345 0.011913150833169399 0.01860381887197159 0.030972869123517974 4.7332200644942 -0.04663354966244514 12.467273299902159 -8.216197510523543 6.900013060714176 0.02284231286663732 46.35732506571925 0.025068915756361776 -4.348324572742957 -14.783308285979862 -3.7933083262826677 0.008876759953475791 0.015182409218059347 0.017489795264866444 0.017936951869187357 -10.772983446844036 0.014142612930297864 
